<svg version="1" xmlns="http://www.w3.org/2000/svg" width="1706.667" height="1706.667" viewBox="0 0 1280.000000 1280.000000"><path d="M638.4 40c-1.7.4-3.8.6-4.7.4-.9-.1-1.7.2-1.7.7 0 .6-.4.8-1 .4-.5-.3-2.6.2-4.7 1.1-2.1 1-4.1 1.8-4.4 1.8-.4.1-2.7 1.6-5.2 3.4-7.5 5.4-10.8 10.3-19.5 29.2-1.6 3.6-4.6 10.1-6.7 14.5-2 4.4-4.7 10.2-6 13-1.2 2.7-3.4 7.5-4.8 10.5s-3.1 6.6-3.6 8c-.6 1.4-1.5 3.2-2 4-1.1 2-5.7 11.9-11.6 25-2.6 5.8-5 10.7-5.4 11-.3.3-.7 1.3-.9 2.3-.2 1-1.4 3.8-2.8 6.3-1.4 2.4-2.1 4.4-1.7 4.4.4 0 .4.4-.2.8-1 .7-5.6 9.6-6.1 11.7-.2.9-6.1 13.8-12.5 27.1-1.6 3.3-2.9 6.5-2.9 7.1 0 .6-.7 1.6-1.5 2.3-.8.6-1.4 1.5-1.3 1.8.1.4-.6 2.5-1.6 4.7-1.1 2.2-3.5 7.4-5.4 11.5-1.9 4.1-5.3 11.3-7.4 16-2.2 4.7-5.2 11-6.5 14-1.4 3-4.1 8.9-6.1 13-1.9 4.1-4.5 9.7-5.7 12.5-1.2 2.7-4.3 9.3-6.8 14.5-5.6 11.9-10.2 21.9-13.3 29-1.4 3-2.9 6.2-3.4 7-.6.8-1.3 2.2-1.6 3-.6 1.7-2.5 5.7-8.4 18.5-2.3 4.9-5.5 11.8-7.1 15.2-1.6 3.5-4.3 9.3-6.1 13-1.7 3.8-3.2 7-3.3 7.3-.1.3-1.3 3-2.7 6-1.4 3-4.2 9.1-6.3 13.5-2 4.4-4.7 10.1-6 12.7-1.3 2.5-2.1 4.9-1.8 5.2.4.3.1.6-.5.6-.7 0-1.2.4-1.2.9 0 .6-1.8 4.9-4.1 9.8-2.2 4.8-5 10.8-6.1 13.3-1.1 2.5-3.9 8.5-6.3 13.5-2.3 4.9-5.4 11.5-6.8 14.5-1.4 3-4.2 9.1-6.3 13.5-2.1 4.4-3.8 8.2-3.9 8.5 0 .3-2.2 4.9-4.8 10.3-2.6 5.4-4.7 10-4.7 10.2 0 .2-2.5 5.6-5.5 12-3 6.3-5.5 12-5.5 12.5 0 .6-.4 1-.8 1-.5 0-.9.6-.9 1.2 0 .7-2.6 6.7-5.8 13.3-5 10.5-10.4 22-11 23.5-2.1 5.2-3.1 7-3.8 7-.4 0-.6.3-.3.8.2.4-.9 3.4-2.5 6.7-5.1 10.1-6.7 16.7-6.4 25.3.3 8.2 1.3 11.2 9.6 28.7 2.3 4.9 4.3 9.2 4.4 9.5.5 1.6 2.8 6.5 6.3 13.8 2.3 4.6 4.4 9.3 4.8 10.5.3 1.2 1.2 2.9 1.9 3.7.6.8 1.9 3.3 2.7 5.5.9 2.2 3.5 8 5.8 13 4.3 9.2 7 14.9 13.5 29 8.8 19 15.8 34 20.3 43.5 1.6 3.6 4.4 9.5 6.1 13.2 1.7 3.8 4.5 9.7 6.1 13.3 1.7 3.6 3 7 3 7.5 0 .6.5 1 1 1 .6 0 1 .5 1 1.2 0 .6 1.4 4.1 3.1 7.7 1.7 3.6 3.1 6.7 3.1 6.8-.1.1 1.9 4.3 4.4 9.3 2.4 5 4.4 9.2 4.4 9.4 0 .2 2.3 5.3 5.1 11.2 4.9 10.5 6.3 13.4 12.7 27.4 1.7 3.6 5.5 11.7 8.5 18.1 3 6.4 5.8 12.7 6.2 14 .4 1.3 1.1 2.6 1.4 2.9.4.3 2 3.4 3.5 6.9 1.6 3.5 5 10.9 7.6 16.5 2.6 5.6 6 12.8 7.5 16.1 1.6 3.3 2.9 6.2 3 6.5 0 .3 2 4.5 4.4 9.5 2.4 4.9 4.5 9.4 4.7 10 .2 1 3.1 7.3 15 32.4 3 6.2 5.4 11.5 5.4 11.6 0 .2 2.2 5 4.8 10.7 2.7 5.7 4.9 10.5 5 10.8 0 .3 2.1 4.7 4.6 9.8 2.6 5.1 4.6 9.5 4.6 9.7 0 .2 1.6 3.7 3.5 7.6 1.9 4 3.5 7.8 3.5 8.6 0 .7.5 1.3 1 1.3.6 0 1 .5 1 1.1 0 .9 2.3 6 10 22.4 5.4 11.5 15.9 34.1 19.3 41.5 2.4 5.2 5.6 12.2 13.4 29 8.8 19 8.2 17.9 15 24.5 5.7 5.5 6.1 5.7 12.3 8.5 8 3.4 22.2 3.4 30 0 3-1.4 6.2-3 7-3.7 7.6-6.1 9.8-8.1 9.4-8.5-.2-.3.5-1.3 1.6-2.3 1.1-1 2-2.2 2-2.6 0-.4 2.4-5.8 5.4-12.1 13.3-28 16-33.9 15.8-35.1-.1-.4.2-.7.8-.7.5 0 1-.4 1-.9 0-.9 2.4-6.2 11.5-25.6 4.3-9.1 6.6-14.2 7-15.5.1-.3 2.7-5.8 5.8-12.4 3.1-6.5 5.7-12 5.7-12.2 0-.1 2.9-6.4 6.5-13.9 3.6-7.6 6.5-13.9 6.5-14.1 0-.1 2.9-6.4 6.5-13.9s6.5-13.9 6.5-14.1c0-.2 1.5-3.5 3.4-7.4 1.9-3.8 3.1-7 2.8-7-.4 0-.2-.4.3-.8.6-.4 2.7-4.3 4.7-8.7 6.1-13.3 11.4-24.6 14.9-32 1.8-3.9 3.3-7.2 3.4-7.5.1-.3 2.2-4.9 4.8-10.4 2.6-5.4 4.7-10 4.7-10.2 0-.2 2.4-5.4 5.4-11.6 2.9-6.2 6.4-13.6 7.6-16.3 1.2-2.8 4.5-9.7 7.2-15.5 4.6-9.6 6.9-14.7 7.3-16 .1-.3 2.5-5.4 5.3-11.3 2.9-6 5.2-11 5.2-11.2 0-.2 2.9-6.3 6.4-13.7 8.7-18.2 11.6-24.7 11.6-25.8 0-.6.5-1 1-1 .6 0 1-.7 1-1.6 0-1.4 1.5-4.8 4.1-9.4.5-.8 1.2-2.2 1.5-3 1.9-4.5 10.1-22.4 12.8-28 1.8-3.6 3.3-6.8 3.4-7.3.1-.4 1.9-4.4 4.1-9 2.1-4.5 5.1-10.9 6.6-14.2 6.3-13.7 8.5-18.5 12.7-27.5 2.5-5.2 5.5-11.8 6.8-14.5 2.4-5.2 6.7-14.4 15.1-32.4 2.7-5.7 4.9-10.5 4.9-10.7 0-.2 1.8-4 4-8.4 2.1-4.4 3.9-8.1 3.9-8.3 0-.1 1.3-3.1 2.9-6.7 5.4-12.1 5.2-11.6 5.7-20.8.3-6.4-.2-9.8-2.3-15.2-.3-.8-.6-1.7-.7-2-.5-1.6-2.8-6.6-6.8-15-11.6-24.6-20.7-44.8-20.7-45.8 0-.7-.4-1.2-1-1.2-.5 0-1-.5-1-1 0-1-1.1-3.5-10-22.5-3.8-8-8.3-17.9-13-28-1.7-3.9-5-10.8-7.2-15.5-6.6-14-9.4-20.1-12.7-27.3-1.7-3.7-4.5-9.6-6.1-13.2-1.6-3.6-3-7-3-7.5 0-.6-.4-1-1-1-.5 0-1-.5-1-1.2 0-.6-1.4-4.1-3.1-7.7-1.7-3.6-3.1-6.7-3.1-6.8.1-.1-1.9-4.3-4.4-9.3-2.4-5-4.4-9.2-4.4-9.4 0-.2-2.3-5.3-5.1-11.2-4.9-10.5-6.3-13.4-12.7-27.4-1.7-3.6-5.5-11.7-8.5-18.1-3-6.4-5.8-12.7-6.2-14-.4-1.3-1.1-2.6-1.4-2.9-.3-.3-3.3-6.4-6.5-13.5-3.3-7.2-8-17.3-10.5-22.5-2.5-5.2-4.5-9.7-4.6-10 0-.3-2-4.6-4.4-9.5-2.4-5-4.5-9.5-4.7-10-.1-.6-2.7-6.2-5.7-12.5-6.9-14.7-10.1-21.4-10.2-22-.1-.3-1.7-3.9-3.7-8-3.5-7.6-5.6-12-12.2-26.3-2-4.2-5.2-11.2-7.2-15.5-2-4.2-4.9-10.5-6.5-14-1.6-3.4-2.9-6.7-2.9-7.2 0-.6-.4-1-1-1-.5 0-1-.5-1-1 0-.6-1.7-4.8-3.9-9.3-2.1-4.6-4.4-10-5.2-12-.7-2-1.7-3.7-2.1-3.7-.4 0-.8-.6-.8-1.4 0-.8-1.3-3.9-2.9-7-1.7-3.1-2.7-5.6-2.4-5.6.3 0 .1-.6-.5-1.3-.6-.6-5-10-10-20.7-4.9-10.7-11.5-24.8-14.6-31.4-3.1-6.5-5.6-12.2-5.6-12.6 0-.4-2.6-3.5-5.8-6.7-7.4-7.7-13.9-11.1-24.2-12.6-.8-.2-1.9-.5-2.5-.8-.5-.3-2.4-.3-4.1.1z"/></svg>