<svg xmlns="http://www.w3.org/2000/svg" viewBox="0 0 204 380" height="200"><g fill-rule="evenodd"><path fill="#f2cd09" d="M4.192 178.757L92.992 6.15c4.032-8.064 14.976-8.064 19.2 0l88.8 172.704c3.936 7.584 3.84 13.92 0 21.504l-88.8 172.8c-4.224 8.064-15.168 7.968-19.2 0l-88.8-172.8c-4.032-7.584-3.936-13.92 0-21.6"/><path fill="#2d3490" d="M186.956 198.205L102.56 362.447 18.1 198.099c-3.423-6.495-3.318-11.899.004-18.431L102.56 15.327l84.45 164.346c3.442 6.528 3.318 11.955-.054 18.532zm-17.721 5.479h-7.296v-19.296l-5.184 12.481h-4.992l-5.28-12.481v19.296h-6.816v-28.99h8.352l6.432 14.206 6.336-14.207h8.448zm-112.244 0h8.928L56.127 191.3c1.728-.864 3.072-1.919 4.032-3.359 1.056-1.345 1.536-3.169 1.536-5.377 0-1.63-.288-2.879-.96-3.936-.576-.959-1.44-1.823-2.495-2.495-.96-.673-2.113-.961-3.265-1.152-1.247-.193-2.592-.288-4.223-.288H39.04v28.991h7.295v-10.75h2.593zm-6.72-16.032c-.576.096-1.152.096-1.92.096h-2.016v-7.87h2.4c.576 0 1.056.095 1.536.095h.576c.576.096 1.056.192 1.536.384.672.288 1.057.671 1.345 1.248.287.48.48 1.152.48 1.823 0 .865-.193 1.536-.385 2.017-.192.48-.576.96-1.056 1.343a3.53 3.53 0 0 1-1.824.77c-.191 0-.48.094-.672.094zm54.913 111.566c1.345.767 2.305 1.824 2.976 3.167.672 1.345.96 2.977.96 4.897 0 1.92-.288 3.552-.864 4.896-.672 1.344-1.536 2.4-2.784 3.168-.576.384-1.247.575-1.92.768-.384.095-.863.191-1.247.191-1.152.097-2.496.097-4.128.097h-.192v-18.145h.192c1.44 0 2.784 0 3.84.097 1.146 0 2.154.357 3.167.864zm-5.47-6.432h-9.025v29.088h9.12c1.248 0 2.592-.096 3.744-.192.672 0 1.248-.096 1.92-.192a12.75 12.75 0 0 0 4.895-1.92c1.825-1.152 3.36-2.784 4.513-4.896 1.151-2.208 1.824-4.608 1.824-7.296 0-2.785-.576-5.28-1.728-7.393-1.057-2.016-2.593-3.648-4.512-4.895-1.536-1.057-3.264-1.632-4.993-1.92-1.88-.268-3.865-.384-5.759-.384zm15.054-219.167H95.281v-29.09h7.295v23.52h12.192zm-12.81 45.841a15.119 15.119 0 0 0-2.472-.312h-.217l-.004-22.016-6.511 6.493h-9.36l-.03-.03 2.356-2.343 14.518-14.479 2.341-2.334 2.346 2.334 16.941 16.852h-9.425l-6.509-6.473-.005 16.487c.36.122.623.254.967.394 6.098 2.48 10.298 7.662 10.298 13.688v.003h-.013c0 4.333-2.16 8.228-5.642 11.001-.391.312-.8.608-1.224.891.437.288.858.592 1.261.91 3.511 2.773 5.7 6.666 5.701 11h.014v.003l-.014.014v.19a12.904 12.904 0 0 1-.54 3.526 13.736 13.736 0 0 1-1.441 3.184c-1.962 3.21-5.295 5.789-9.362 7.181v13.307h19.493v6.628H79.736v-6.628h19.53v-15.723l-.037-3.095c4.643-.054 8.568-2.156 10.388-5.133.311-.51.56-1.063.737-1.65.174-.575.271-1.147.28-1.7v-.1h-.012v-.005h.013v-.005c-.003-2.188-1.221-4.243-3.176-5.785-2.176-1.719-4.879-2.788-8.237-2.79v.014h-.006v-6.667h.006v.013c3.343-.001 6.019-1.07 8.175-2.788 1.939-1.544 3.141-3.601 3.142-5.793h-.014v-.003c0-3.186-2.5-6.04-6.13-7.516a14.135 14.135 0 0 0-2.436-.745zm19.627 160.237v-6.628h-15.652l-.002-.074-.004-11.226c.36-.123.623-.255.967-.395 6.098-2.48 10.298-7.661 10.298-13.689v-.002h-.013c0-4.334-2.16-8.228-5.642-11.002-.391-.312-.8-.608-1.224-.89.437-.288.858-.592 1.261-.91 3.511-2.773 5.7-6.666 5.701-11h.014v-.002l-.014-.014v-.192a12.895 12.895 0 0 0-.54-3.524 13.77 13.77 0 0 0-1.441-3.185c-1.962-3.21-5.295-5.788-9.362-7.18v-11.345h19.493v-6.627H79.736v6.627h19.53V212.2l-.037 3.095c4.643.053 8.568 2.154 10.388 5.133.311.51.56 1.063.737 1.648.174.577.271 1.15.28 1.701v.102h-.012v.002h.013v.007c-.003 2.187-1.221 4.241-3.176 5.784-2.176 1.719-4.879 2.788-8.237 2.79v-.014h-.006v6.668h.006v-.013c3.343 0 6.019 1.07 8.175 2.788 1.939 1.544 3.141 3.601 3.142 5.792h-.014v.002c0 3.187-2.5 6.041-6.13 7.517-.786.319-1.602.571-2.436.745-.808.17-1.636.277-2.473.313h-.217l-.002 16.81H83.965v6.627h37.62zM99.368 365.51c.375.72.922 1.24 1.545 1.562.516.266 1.084.4 1.65.399a3.55 3.55 0 0 0 1.794-.485 3.569 3.569 0 0 0 1.36-1.461l.002.001 85.528-166.76c1.7-3.317 2.581-6.32 2.604-9.286.021-2.961-.812-5.943-2.542-9.223l-.005-.01L105.72 13.749l-.005-.005a3.511 3.511 0 0 0-1.505-1.545 3.569 3.569 0 0 0-3.275-.007 3.57 3.57 0 0 0-1.545 1.55L13.808 180.246l-.005.01c-1.73 3.28-2.562 6.262-2.541 9.223.022 2.967.904 5.97 2.604 9.287L99.367 365.51zm.326 3.926a6.247 6.247 0 0 1-2.68-2.696l-.006-.01L11.5 199.974c-1.89-3.687-2.87-7.075-2.895-10.484-.025-3.418.907-6.803 2.842-10.474v.002l85.58-166.495.004-.007a6.229 6.229 0 0 1 2.696-2.701 6.256 6.256 0 0 1 2.86-.673 6.156 6.156 0 0 1 5.502 3.393l-.002.001 85.576 166.482.001-.002c1.935 3.671 2.867 7.056 2.843 10.474-.026 3.409-1.006 6.797-2.896 10.484l-85.53 166.764v.004a6.214 6.214 0 0 1-2.38 2.535 6.207 6.207 0 0 1-3.137.85 6.25 6.25 0 0 1-2.87-.692"/></g></svg>